<svg xmlns="http://www.w3.org/2000/svg" width="1600" height="900" viewBox="0 0 1600 900">
  <defs>
    <linearGradient id="bg" x1="0" y1="0" x2="1" y2="1">
      <stop offset="0" stop-color="#0a0a0f"/>
      <stop offset="1" stop-color="#1a1a24"/>
    </linearGradient>
    <linearGradient id="accent" x1="0" y1="0" x2="1" y2="0">
      <stop offset="0" stop-color="#ff6a00"/>
      <stop offset="1" stop-color="#ff8a00"/>
    </linearGradient>
  </defs>
  <rect width="1600" height="900" fill="url(#bg)"/>
  <rect x="80" y="80" width="1440" height="740" rx="48" fill="rgba(255,255,255,0.04)" stroke="rgba(255,255,255,0.10)" stroke-width="3"/>
  <g opacity="0.9">
    <path d="M520 560c30-70 110-130 210-130h160c90 0 170 60 200 130l35 10c18 5 30 22 30 41v54c0 17-13 30-30 30h-55c-8 47-48 83-97 83s-89-36-97-83H720c-8 47-48 83-97 83s-89-36-97-83h-55c-17 0-30-13-30-30v-54c0-19 12-36 30-41l40-10z"
      fill="rgba(255,255,255,0.10)"/>
    <circle cx="623" cy="695" r="52" fill="rgba(255,255,255,0.14)"/>
    <circle cx="623" cy="695" r="30" fill="rgba(0,0,0,0.35)"/>
    <circle cx="977" cy="695" r="52" fill="rgba(255,255,255,0.14)"/>
    <circle cx="977" cy="695" r="30" fill="rgba(0,0,0,0.35)"/>
    <rect x="702" y="470" width="330" height="56" rx="16" fill="rgba(0,0,0,0.35)" />
  </g>
  <g>
    <text x="800" y="270" text-anchor="middle" font-family="system-ui, -apple-system, Segoe UI, Roboto, Arial, sans-serif" font-size="54" fill="white" font-weight="700">
      Imagen próximamente
    </text>
    <text x="800" y="330" text-anchor="middle" font-family="system-ui, -apple-system, Segoe UI, Roboto, Arial, sans-serif" font-size="24" fill="rgba(255,255,255,0.70)">
      Placeholder temporal para la galería y el carrusel
    </text>
    <rect x="650" y="380" width="300" height="10" rx="5" fill="url(#accent)"/>
  </g>
</svg>
